<svg width="20" height="21" viewBox="0 0 20 21" fill="none" xmlns="http://www.w3.org/2000/svg">
<path fill-rule="evenodd" clip-rule="evenodd" d="M8.32227 4.87109L9.20898 0.966797L10.041 1C10.041 1 10.9767 1.02577 11.9453 1.50781C12.9139 1.98986 14 3.12758 14 4.86328C14 5.98654 13.7175 7.12305 13.4355 8H18C19.0931 8 20 8.90694 20 10V12.4434C20 12.6752 19.9463 12.9123 19.8359 13.127L16.4199 19.9004C16.0812 20.5719 15.3884 21 14.6348 21H6C4.90694 21 4 20.0931 4 19V9.46289C4 8.87637 4.25919 8.31737 4.70703 7.9375L8.32227 4.87109ZM10.8727 3.24122C10.84 3.23665 10.8037 3.23159 10.748 3.21484L10.125 5.96289L6 9.46289V19H14.6348L18 12.3242V10H10.4922L11.0781 8.61133C11.0781 8.61133 12 6.25178 12 4.86328C12 3.85698 11.5861 3.56328 11.0547 3.29883C10.9647 3.25405 10.9229 3.24822 10.8727 3.24122ZM0 21V8H2V21H0Z" fill="black"/>
</svg>
