<svg width="22" height="21" viewBox="0 0 22 21" fill="none" xmlns="http://www.w3.org/2000/svg">
<path fill-rule="evenodd" clip-rule="evenodd" d="M0 2C0 0.897 0.897 0 2 0H18C19.103 0 20 0.897 20 2V11.4082L18 10.2852V2H2V16H10V18H2C0.897 18 0 17.103 0 16V2ZM12 11.1445C12 10.492 12.514 10.019 13.0859 10C13.2766 9.99367 13.4734 10.0378 13.6602 10.1426L21.4199 14.498C22.1939 14.932 22.1939 16.067 21.4199 16.502L13.6602 20.8574C12.9132 21.2764 12 20.7255 12 19.8555V11.1445ZM4.00195 6V4H6V6H4.00195ZM14 6V4H16V6H14ZM4 10V8H6V10H4ZM4 14V12H6V14H4Z" fill="black"/>
</svg>
